<?xml version="1.0" standalone="no"?>
<!DOCTYPE svg PUBLIC "-//W3C//DTD SVG 20010904//EN"
 "http://www.w3.org/TR/2001/REC-SVG-20010904/DTD/svg10.dtd">
<svg version="1.0" xmlns="http://www.w3.org/2000/svg"
 width="300.000000pt" height="300.000000pt" viewBox="0 0 300.000000 300.000000"
 preserveAspectRatio="xMidYMid meet">

<g transform="translate(0.000000,300.000000) scale(0.100000,-0.100000)"
fill="#000000" stroke="none">
<path d="M192 2979 c-71 -28 -144 -101 -171 -174 -21 -55 -21 -63 -21 -1305 0
-1242 0 -1250 21 -1305 28 -74 100 -146 174 -174 55 -21 63 -21 1305 -21 1242
0 1250 0 1305 21 74 28 146 100 174 174 20 54 21 74 21 515 l0 460 -120 0
-119 0 -3 -440 -3 -439 -23 -23 -23 -23 -1209 0 -1209 0 -23 23 -23 23 0 1209
0 1209 23 23 23 23 1209 0 1209 0 23 -23 23 -23 3 -439 3 -440 119 0 120 0 0
460 c0 441 -1 461 -21 515 -28 74 -100 146 -174 174 -55 21 -62 21 -1308 20
-1234 0 -1253 0 -1305 -20z"/>
<path d="M1420 2154 c0 -459 2 -525 15 -520 8 3 195 109 416 236 220 126 403
230 405 230 2 0 4 -61 4 -135 l0 -135 200 0 200 0 0 400 0 401 -25 24 -24 25
-596 0 -595 0 0 -526z"/>
<path d="M1790 1733 c-297 -169 -375 -217 -375 -233 0 -16 79 -65 378 -234
l377 -214 0 104 0 104 415 0 415 0 0 240 0 240 -415 0 -414 0 -3 103 -3 102
-375 -212z"/>
<path d="M1420 846 l0 -526 595 0 596 0 24 25 25 24 0 401 0 400 -200 0 -200
0 0 -135 c0 -74 -2 -135 -4 -135 -2 0 -185 104 -405 230 -221 127 -408 233
-416 236 -13 5 -15 -61 -15 -520z"/>
</g>
</svg>
